# xmcd CD database file
#
# Track frame offsets:
#	150
#	11629
#	22270
#	35629
#	43732
#	61242
#	69907
#	81679
#	97905
#	110452
#	126962
#	137287
#	160830
#	186991
#	201838
#
# Disc length: 2899 seconds
#
# Revision: 0
# Processed by: cddbd v1.5.1PL2 Copyright (c) Steve Scherf et al.
# Submitted via: CDex 1.51
#
DISCID=d10b510f
DTITLE=Lee, Nokyung - Flower You
DYEAR=2005
DGENRE=Jazz
TTITLE0=Fake Song
TTITLE1=The Subway (arr. Mozart kv525. Menuetto Allegrett)
TTITLE2=Light Up
TTITLE3=Body Blues
TTITLE4=Moving Soon
TTITLE5=Anna's Rag
TTITLE6=2no-Bop
TTITLE7=Bridge Over the Charles
TTITLE8=Absence
TTITLE9=Man-go Tango
TTITLE10=Dawn
TTITLE11=Pack Your Bags
TTITLE12=Flower You
TTITLE13=Yiddish Dance
TTITLE14=I Love You
EXTD=YEAR: 2005
EXTT0=
EXTT1=
EXTT2=
EXTT3=
EXTT4=
EXTT5=
EXTT6=
EXTT7=
EXTT8=
EXTT9=
EXTT10=
EXTT11=
EXTT12=
EXTT13=
EXTT14=
PLAYORDER=
